<svg width="339" height="48" viewBox="0 0 339 48" fill="none" xmlns="http://www.w3.org/2000/svg">
<path d="M24 48C10.7467 48 0 37.2533 0 24H24V48Z" fill="#4F46E5"/>
<path d="M0 0C13.2533 0 24 10.7467 24 24H0V0Z" fill="#4F46E5"/>
<path d="M24 48C37.2533 48 48 37.2533 48 24H24V48Z" fill="#4F46E5"/>
<path d="M48 24C48 10.7467 37.2533 0 24 0V24H48Z" fill="#4F46E5"/>
<path d="M63.822 42V12.6H69.576L80.286 30.03L76.506 29.988L87.342 12.6H92.844V42H86.67V31.92C86.67 29.4 86.726 27.132 86.838 25.116C86.978 23.1 87.202 21.098 87.51 19.11L88.266 21.084L79.656 34.44H76.884L68.442 21.168L69.156 19.11C69.464 20.986 69.674 22.918 69.786 24.906C69.926 26.866 69.996 29.204 69.996 31.92V42H63.822ZM107.966 42.42C106.118 42.42 104.452 41.916 102.968 40.908C101.484 39.9 100.308 38.528 99.44 36.792C98.572 35.056 98.138 33.068 98.138 30.828C98.138 28.588 98.572 26.614 99.44 24.906C100.336 23.17 101.54 21.812 103.052 20.832C104.564 19.824 106.286 19.32 108.218 19.32C109.31 19.32 110.304 19.488 111.2 19.824C112.124 20.132 112.922 20.566 113.594 21.126C114.294 21.686 114.882 22.33 115.358 23.058C115.834 23.786 116.17 24.57 116.366 25.41L115.106 25.2V19.782H121.028V42H115.022V36.666L116.366 36.54C116.142 37.324 115.778 38.066 115.274 38.766C114.77 39.466 114.14 40.096 113.384 40.656C112.656 41.188 111.83 41.622 110.906 41.958C109.982 42.266 109.002 42.42 107.966 42.42ZM109.604 37.254C110.724 37.254 111.704 36.988 112.544 36.456C113.384 35.924 114.028 35.182 114.476 34.23C114.952 33.25 115.19 32.116 115.19 30.828C115.19 29.568 114.952 28.462 114.476 27.51C114.028 26.558 113.384 25.816 112.544 25.284C111.704 24.724 110.724 24.444 109.604 24.444C108.512 24.444 107.546 24.724 106.706 25.284C105.894 25.816 105.25 26.558 104.774 27.51C104.298 28.462 104.06 29.568 104.06 30.828C104.06 32.116 104.298 33.25 104.774 34.23C105.25 35.182 105.894 35.924 106.706 36.456C107.546 36.988 108.512 37.254 109.604 37.254ZM134.483 42.42C132.411 42.42 130.563 42.084 128.939 41.412C127.343 40.712 126.055 39.76 125.075 38.556L128.771 35.364C129.639 36.288 130.605 36.96 131.669 37.38C132.733 37.772 133.797 37.968 134.861 37.968C135.281 37.968 135.659 37.926 135.995 37.842C136.359 37.73 136.667 37.59 136.919 37.422C137.171 37.226 137.353 37.002 137.465 36.75C137.605 36.47 137.675 36.176 137.675 35.868C137.675 35.252 137.423 34.762 136.919 34.398C136.639 34.258 136.205 34.09 135.617 33.894C135.029 33.67 134.273 33.432 133.349 33.18C131.921 32.816 130.703 32.396 129.695 31.92C128.715 31.416 127.931 30.856 127.343 30.24C126.839 29.652 126.447 29.022 126.167 28.35C125.915 27.65 125.789 26.88 125.789 26.04C125.789 25.032 126.013 24.122 126.461 23.31C126.909 22.47 127.525 21.756 128.309 21.168C129.121 20.58 130.045 20.132 131.081 19.824C132.117 19.488 133.209 19.32 134.357 19.32C135.505 19.32 136.625 19.46 137.717 19.74C138.809 20.02 139.817 20.426 140.741 20.958C141.693 21.462 142.519 22.064 143.219 22.764L140.027 26.292C139.523 25.816 138.949 25.382 138.305 24.99C137.689 24.598 137.045 24.29 136.373 24.066C135.701 23.842 135.099 23.73 134.567 23.73C134.091 23.73 133.657 23.772 133.265 23.856C132.901 23.94 132.593 24.066 132.341 24.234C132.089 24.402 131.893 24.626 131.753 24.906C131.641 25.158 131.585 25.438 131.585 25.746C131.585 26.054 131.655 26.348 131.795 26.628C131.963 26.908 132.187 27.146 132.467 27.342C132.775 27.51 133.223 27.706 133.811 27.93C134.427 28.154 135.253 28.406 136.289 28.686C137.633 29.05 138.767 29.456 139.691 29.904C140.643 30.352 141.399 30.87 141.959 31.458C142.435 31.962 142.785 32.536 143.009 33.18C143.233 33.824 143.345 34.538 143.345 35.322C143.345 36.694 142.953 37.926 142.169 39.018C141.413 40.082 140.363 40.922 139.019 41.538C137.675 42.126 136.163 42.42 134.483 42.42ZM149.739 42V14.154H155.703V42H149.739ZM145.581 25.116V19.782H160.239V25.116H145.581ZM174.463 42.42C172.055 42.42 169.955 41.93 168.163 40.95C166.371 39.97 164.971 38.626 163.963 36.918C162.955 35.21 162.451 33.25 162.451 31.038C162.451 29.33 162.731 27.762 163.291 26.334C163.851 24.906 164.635 23.674 165.643 22.638C166.651 21.574 167.841 20.762 169.213 20.202C170.613 19.614 172.125 19.32 173.749 19.32C175.261 19.32 176.661 19.6 177.949 20.16C179.237 20.692 180.343 21.462 181.267 22.47C182.219 23.45 182.947 24.612 183.451 25.956C183.955 27.3 184.179 28.77 184.123 30.366L184.081 32.214H166.231L165.265 28.56H179.167L178.495 29.316V28.392C178.439 27.636 178.187 26.95 177.739 26.334C177.319 25.718 176.773 25.242 176.101 24.906C175.429 24.57 174.673 24.402 173.833 24.402C172.601 24.402 171.551 24.64 170.683 25.116C169.843 25.592 169.199 26.292 168.751 27.216C168.303 28.14 168.079 29.26 168.079 30.576C168.079 31.92 168.359 33.082 168.919 34.062C169.507 35.042 170.319 35.812 171.355 36.372C172.419 36.904 173.665 37.17 175.093 37.17C176.073 37.17 176.969 37.016 177.781 36.708C178.593 36.4 179.461 35.868 180.385 35.112L183.241 39.102C182.429 39.83 181.533 40.446 180.553 40.95C179.573 41.426 178.565 41.79 177.529 42.042C176.493 42.294 175.471 42.42 174.463 42.42ZM188.531 42V19.782H194.285L194.495 26.922L193.487 25.452C193.823 24.304 194.369 23.268 195.125 22.344C195.881 21.392 196.763 20.65 197.771 20.118C198.807 19.586 199.885 19.32 201.005 19.32C201.481 19.32 201.943 19.362 202.391 19.446C202.839 19.53 203.217 19.628 203.525 19.74L201.929 26.292C201.593 26.124 201.187 25.984 200.711 25.872C200.235 25.732 199.745 25.662 199.241 25.662C198.569 25.662 197.939 25.788 197.351 26.04C196.791 26.264 196.301 26.6 195.881 27.048C195.461 27.468 195.125 27.972 194.873 28.56C194.649 29.148 194.537 29.792 194.537 30.492V42H188.531ZM213.509 42V18.27H204.941V12.6H228.629V18.27H219.809V42H213.509ZM237.124 42.42C235.276 42.42 233.61 41.916 232.126 40.908C230.642 39.9 229.466 38.528 228.598 36.792C227.73 35.056 227.296 33.068 227.296 30.828C227.296 28.588 227.73 26.614 228.598 24.906C229.494 23.17 230.698 21.812 232.21 20.832C233.722 19.824 235.444 19.32 237.376 19.32C238.468 19.32 239.462 19.488 240.358 19.824C241.282 20.132 242.08 20.566 242.752 21.126C243.452 21.686 244.04 22.33 244.516 23.058C244.992 23.786 245.328 24.57 245.524 25.41L244.264 25.2V19.782H250.186V42H244.18V36.666L245.524 36.54C245.3 37.324 244.936 38.066 244.432 38.766C243.928 39.466 243.298 40.096 242.542 40.656C241.814 41.188 240.988 41.622 240.064 41.958C239.14 42.266 238.16 42.42 237.124 42.42ZM238.762 37.254C239.882 37.254 240.862 36.988 241.702 36.456C242.542 35.924 243.186 35.182 243.634 34.23C244.11 33.25 244.348 32.116 244.348 30.828C244.348 29.568 244.11 28.462 243.634 27.51C243.186 26.558 242.542 25.816 241.702 25.284C240.862 24.724 239.882 24.444 238.762 24.444C237.67 24.444 236.704 24.724 235.864 25.284C235.052 25.816 234.408 26.558 233.932 27.51C233.456 28.462 233.218 29.568 233.218 30.828C233.218 32.116 233.456 33.25 233.932 34.23C234.408 35.182 235.052 35.924 235.864 36.456C236.704 36.988 237.67 37.254 238.762 37.254ZM263.642 42.42C261.57 42.42 259.722 42.084 258.098 41.412C256.502 40.712 255.214 39.76 254.234 38.556L257.93 35.364C258.798 36.288 259.764 36.96 260.828 37.38C261.892 37.772 262.956 37.968 264.02 37.968C264.44 37.968 264.818 37.926 265.154 37.842C265.518 37.73 265.826 37.59 266.078 37.422C266.33 37.226 266.512 37.002 266.624 36.75C266.764 36.47 266.834 36.176 266.834 35.868C266.834 35.252 266.582 34.762 266.078 34.398C265.798 34.258 265.364 34.09 264.776 33.894C264.188 33.67 263.432 33.432 262.508 33.18C261.08 32.816 259.862 32.396 258.854 31.92C257.874 31.416 257.09 30.856 256.502 30.24C255.998 29.652 255.606 29.022 255.326 28.35C255.074 27.65 254.948 26.88 254.948 26.04C254.948 25.032 255.172 24.122 255.62 23.31C256.068 22.47 256.684 21.756 257.468 21.168C258.28 20.58 259.204 20.132 260.24 19.824C261.276 19.488 262.368 19.32 263.516 19.32C264.664 19.32 265.784 19.46 266.876 19.74C267.968 20.02 268.976 20.426 269.9 20.958C270.852 21.462 271.678 22.064 272.378 22.764L269.186 26.292C268.682 25.816 268.108 25.382 267.464 24.99C266.848 24.598 266.204 24.29 265.532 24.066C264.86 23.842 264.258 23.73 263.726 23.73C263.25 23.73 262.816 23.772 262.424 23.856C262.06 23.94 261.752 24.066 261.5 24.234C261.248 24.402 261.052 24.626 260.912 24.906C260.8 25.158 260.744 25.438 260.744 25.746C260.744 26.054 260.814 26.348 260.954 26.628C261.122 26.908 261.346 27.146 261.626 27.342C261.934 27.51 262.382 27.706 262.97 27.93C263.586 28.154 264.412 28.406 265.448 28.686C266.792 29.05 267.926 29.456 268.85 29.904C269.802 30.352 270.558 30.87 271.118 31.458C271.594 31.962 271.944 32.536 272.168 33.18C272.392 33.824 272.504 34.538 272.504 35.322C272.504 36.694 272.112 37.926 271.328 39.018C270.572 40.082 269.522 40.922 268.178 41.538C266.834 42.126 265.322 42.42 263.642 42.42ZM282.425 35.322L280.661 30.408L291.161 19.782H299.015L282.425 35.322ZM276.755 42V10.92H282.719V42H276.755ZM291.791 42L283.811 31.962L288.011 28.602L298.973 42H291.791Z" fill="#111827"/>
</svg>
